<svg xmlns="http://www.w3.org/2000/svg" viewBox="0 0 78.72 32.72"><defs><style>.cls-1{fill:#fbf37c;}.cls-2{fill:#fff;}</style></defs><title>bañoRecurso 4logo</title><g id="Capa_2" data-name="Capa 2"><g id="Nav-iz"><path class="cls-1" d="M11.78,21a35,35,0,0,1-.51-3.82,12.44,12.44,0,0,1,0-1.93,10.5,10.5,0,0,1,.3-1.92,8.86,8.86,0,0,1,.62-1.84,3.07,3.07,0,0,1,.57-.83,1.34,1.34,0,0,1,1-.42.68.68,0,0,1,.54.28,1,1,0,0,1,.16.54,3.68,3.68,0,0,1-.11,1,3.75,3.75,0,0,1-.86,1.81h0a2.86,2.86,0,0,1-4.23.29A4,4,0,0,1,8.35,12a5.48,5.48,0,0,1-.09-1.14,2.65,2.65,0,0,1,.22-1.2.94.94,0,0,1,.6-.49,1.2,1.2,0,0,1,.71.07,1.75,1.75,0,0,1,.94.87,4.23,4.23,0,0,1,.4,2.31,4.29,4.29,0,0,1-.79,2.21,3.19,3.19,0,0,1-2.06,1.22h0a3.46,3.46,0,0,1-2.87-1.09,2.71,2.71,0,0,1-.61-1.51,2.23,2.23,0,0,1,.41-1.64,1.17,1.17,0,0,1,1-.39,1.52,1.52,0,0,1,.89.33A2.76,2.76,0,0,1,7.83,13a28.35,28.35,0,0,1,.6,2.82c.31,1.89.48,3.78.71,5.64l.32,2.84a2.57,2.57,0,0,1,0,.86,1.22,1.22,0,0,1-.74.79,3,3,0,0,1-.85.16H7.45l-.2,0H7.14l-.46-.32L5.25,21.33l0,.07L2.58,16l0,.08A12.06,12.06,0,0,1,.87,13,14,14,0,0,1,.05,9.6,8.56,8.56,0,0,1,.42,6a7.64,7.64,0,0,1,2-3,9.75,9.75,0,0,1,3-1.9A15.07,15.07,0,0,1,8.78.13a10.35,10.35,0,0,1,6.9,1.25,11.37,11.37,0,0,1,4.44,5.41,9.9,9.9,0,0,1,.14,7,16,16,0,0,1-1.53,3.14,18.36,18.36,0,0,1-2.06,2.78,8.85,8.85,0,0,0-2.14,6.08V26l-.24.06a16.14,16.14,0,0,1-2.21.34l-.55,0s-.12,0,0,0a.3.3,0,0,0,.08-.08.26.26,0,0,0,0-.22.24.24,0,0,0-.05-.1h0a2,2,0,0,0,.21.11c.32.14.67.26,1,.38l.26.09.13.05.08,0h.06s0-.06.12.14a.28.28,0,0,1-.08.3l0,0h-.05a2.79,2.79,0,0,1-.63.09c-.37,0-.74,0-1.11,0-.74,0-1.47,0-2.21-.05l.16-.06s0,0,0,0,0-.07,0-.06l-.1,0,3.63.05h0l.05,0a.33.33,0,0,1,.18.33.41.41,0,0,1-.15.28l-.05.05H13l-3.16,0,.09,0c-.05.06-.05.08,0,.09l-.06,0,2.69,0h0a.52.52,0,0,1,.3.06.33.33,0,0,1,.2.28.37.37,0,0,1-.2.27.65.65,0,0,1-.3.06h0l-1.42,0,.06,0a2.12,2.12,0,0,0-.27,1,3.48,3.48,0,0,0,.2,1.05,5,5,0,0,1,0,2.17A4.87,4.87,0,0,0,11,30.57a3.54,3.54,0,0,1-.24-1.07A2.26,2.26,0,0,1,11,28.42l0,0h.05l1.42,0h0a.28.28,0,0,0,.2,0,.18.18,0,0,0,.1-.1.19.19,0,0,0-.1-.1.43.43,0,0,0-.19,0h0l-2.69,0h0l0,0a.31.31,0,0,1-.17-.28.37.37,0,0,1,.14-.26l0,0H9.8l3.16,0-.11,0a.06.06,0,0,0,0,0s0,0,0,0l.08,0-3.63,0h0l-.06,0A.38.38,0,0,1,9,27.18a.46.46,0,0,1,.17-.33l.06-.05h2.29l1.08,0a2.35,2.35,0,0,0,.46-.06h0l-.05,0a.26.26,0,0,0-.09.29c.13.2.12.12.12.14h0l-.05,0-.13-.05L12.62,27c-.34-.11-.69-.23-1-.38a1.38,1.38,0,0,1-.28-.13l-.11-.08a.35.35,0,0,1-.09-.15.32.32,0,0,1,0-.25.26.26,0,0,1,.11-.1.44.44,0,0,1,.26-.06l.54-.05a15.28,15.28,0,0,0,2.13-.36l-.24.31a10.57,10.57,0,0,1,.48-3.48,9,9,0,0,1,1.72-3.06,18.77,18.77,0,0,0,2-2.73,15.25,15.25,0,0,0,1.41-3,9.18,9.18,0,0,0-.18-6.39,10.46,10.46,0,0,0-4.11-5,9.41,9.41,0,0,0-6.28-1.1A11.29,11.29,0,0,0,3,3.67,6.68,6.68,0,0,0,1.35,6.33,7.88,7.88,0,0,0,1,9.5a11.52,11.52,0,0,0,2.35,6l0,0,0,0L6.11,21l0,0v0l1.41,4.42-.45-.31.39,0h.32a2,2,0,0,0,.54-.09c.15-.07.19-.1.21-.19a1.64,1.64,0,0,0,0-.55l-.3-2.8c-.21-1.88-.38-3.77-.68-5.61A24.91,24.91,0,0,0,7,13.22a2,2,0,0,0-.51-1A.71.71,0,0,0,6.09,12a.39.39,0,0,0-.32.12,1.51,1.51,0,0,0-.23,1A1.93,1.93,0,0,0,6,14.29a2.74,2.74,0,0,0,2.23.86h0a2.49,2.49,0,0,0,1.64-.95,3.51,3.51,0,0,0,.69-1.85,3.59,3.59,0,0,0-.3-2,1.15,1.15,0,0,0-.61-.6c-.3-.11-.48-.09-.59.13a2.2,2.2,0,0,0-.17.94,5.2,5.2,0,0,0,.07,1,3.46,3.46,0,0,0,.77,1.85,2.42,2.42,0,0,0,3.54-.2h0A3.39,3.39,0,0,0,14,11.93a3.16,3.16,0,0,0,.13-.9c0-.3-.11-.52-.38-.52-.56,0-1,.51-1.27,1.05a8.62,8.62,0,0,0-.65,1.78,10,10,0,0,0-.34,1.88,13.5,13.5,0,0,0-.09,1.91A32.72,32.72,0,0,0,11.78,21Z"/><path class="cls-1" d="M12.34,3.93a3.43,3.43,0,0,1,2.1.28,4.37,4.37,0,0,1,1.71,1.34,4.11,4.11,0,0,1,.84,2,3.43,3.43,0,0,1-.35,2.09v0a0,0,0,0,1-.06,0s0,0,0,0a6.52,6.52,0,0,0-.3-1.86,5,5,0,0,0-.88-1.64,6.2,6.2,0,0,0-3-2.14s0,0,0-.06l0,0Z"/><path class="cls-1" d="M33.65,11.28A3.41,3.41,0,0,1,33,13.51a2.54,2.54,0,0,1-2,.73,2.29,2.29,0,0,1-2.58-2.55c0-.1,0-.15.11-.16l1.5-.23c.1,0,.16,0,.16.11a1.78,1.78,0,0,0,.21.94.71.71,0,0,0,.61.29.64.64,0,0,0,.58-.25,1.58,1.58,0,0,0,.18-.88,1.79,1.79,0,0,0-.18-.92,1.38,1.38,0,0,0-.7-.5l-.58-.22a2.83,2.83,0,0,1-1.4-1,3.19,3.19,0,0,1-.4-1.76c0-1.76.84-2.65,2.52-2.65a2.23,2.23,0,0,1,2.52,2.37.14.14,0,0,1-.13.15L32,7.21c-.1,0-.15,0-.15-.11,0-.69-.27-1-.76-1s-.73.32-.73,1a1.37,1.37,0,0,0,.17.77,1.66,1.66,0,0,0,.73.46l.57.23a2.71,2.71,0,0,1,1.4,1A3.32,3.32,0,0,1,33.65,11.28Z"/><path class="cls-1" d="M34.64,14V4.73a.13.13,0,0,1,.14-.14h4.16a.12.12,0,0,1,.14.14V6.1c0,.1,0,.14-.14.14H36.56c-.05,0-.08,0-.08.09V8.4a.07.07,0,0,0,.08.08h2.06a.13.13,0,0,1,.14.14V10a.12.12,0,0,1-.14.14H36.56c-.05,0-.08,0-.08.09v2.15c0,.06,0,.09.08.09h2.38c.1,0,.14,0,.14.14V14a.12.12,0,0,1-.14.14H34.78A.13.13,0,0,1,34.64,14Z"/><path class="cls-1" d="M40.1,14V4.73a.13.13,0,0,1,.14-.14h2.41a2.63,2.63,0,0,1,1.93.61,2.52,2.52,0,0,1,.62,1.87,2,2,0,0,1-1.09,2.06v0q1.2.38,1.2,2.16a2.87,2.87,0,0,1-.68,2.16,3,3,0,0,1-2.13.64H40.24A.13.13,0,0,1,40.1,14ZM42,8.5h.41a.92.92,0,0,0,.74-.24,1.57,1.57,0,0,0,.2-.94,1.56,1.56,0,0,0-.2-.93.92.92,0,0,0-.74-.25H42c-.05,0-.08,0-.08.09V8.41C41.94,8.47,42,8.5,42,8.5Zm-.08,4c0,.06,0,.09.08.09h.41a1,1,0,0,0,.81-.28,1.76,1.76,0,0,0,.22-1,1.65,1.65,0,0,0-.22-1,1,1,0,0,0-.81-.28H42c-.05,0-.08,0-.08.09Z"/><path class="cls-1" d="M45.7,14l2.08-9.24a.16.16,0,0,1,.15-.14h1.65a.15.15,0,0,1,.16.14l2,9.24c0,.09,0,.14-.11.14H50.11c-.08,0-.13,0-.15-.14l-.31-1.72h-1.8L47.52,14a.14.14,0,0,1-.15.14H45.82C45.72,14.11,45.69,14.06,45.7,14Zm2.41-3.18h1.28l-.61-3.3h0Z"/><path class="cls-1" d="M57.42,11.28a3.41,3.41,0,0,1-.62,2.23,2.54,2.54,0,0,1-2,.73,2.29,2.29,0,0,1-2.58-2.55c0-.1,0-.15.12-.16l1.49-.23c.11,0,.16,0,.16.11a1.68,1.68,0,0,0,.22.94.68.68,0,0,0,.6.29.67.67,0,0,0,.59-.25,1.69,1.69,0,0,0,.17-.88,1.92,1.92,0,0,0-.17-.92,1.46,1.46,0,0,0-.71-.5l-.58-.22a2.83,2.83,0,0,1-1.4-1,3.19,3.19,0,0,1-.4-1.76c0-1.76.84-2.65,2.52-2.65a2.23,2.23,0,0,1,2.52,2.37.13.13,0,0,1-.13.15l-1.43.23c-.1,0-.15,0-.15-.11,0-.69-.27-1-.76-1s-.72.32-.72,1a1.38,1.38,0,0,0,.16.77,1.72,1.72,0,0,0,.73.46l.58.23a2.75,2.75,0,0,1,1.4,1A3.33,3.33,0,0,1,57.42,11.28Z"/><path class="cls-1" d="M61.22,14.11H59.66a.13.13,0,0,1-.14-.14V6.33c0-.06,0-.09-.08-.09h-1.5a.12.12,0,0,1-.14-.14V4.73a.13.13,0,0,1,.14-.14h5a.13.13,0,0,1,.14.14V6.1a.12.12,0,0,1-.14.14h-1.5c-.06,0-.08,0-.08.09V14A.13.13,0,0,1,61.22,14.11Z"/><path class="cls-1" d="M63.92,14V4.73a.12.12,0,0,1,.14-.14h1.55a.13.13,0,0,1,.14.14V14a.13.13,0,0,1-.14.14H64.06A.12.12,0,0,1,63.92,14Z"/><path class="cls-1" d="M66.52,14l2.07-9.24c0-.09.08-.14.16-.14H70.4a.14.14,0,0,1,.15.14l2,9.24c0,.09,0,.14-.11.14H70.93c-.08,0-.13,0-.15-.14l-.31-1.72H68.66L68.34,14c0,.09-.07.14-.15.14H66.63C66.54,14.11,66.5,14.06,66.52,14Zm2.41-3.18H70.2l-.6-3.3h0Z"/><path class="cls-1" d="M73.37,14V4.73a.12.12,0,0,1,.14-.14h1.75a.18.18,0,0,1,.19.14l1.59,6h.07v-6a.12.12,0,0,1,.14-.14h1.33a.13.13,0,0,1,.14.14V14a.13.13,0,0,1-.14.14H76.9a.19.19,0,0,1-.2-.14L75.05,8H75v6a.13.13,0,0,1-.14.14H73.51A.12.12,0,0,1,73.37,14Z"/><path class="cls-2" d="M28.86,26.94V15.72a.15.15,0,0,1,.17-.17h5a.15.15,0,0,1,.17.17v1.67a.15.15,0,0,1-.17.17H31.19c-.07,0-.1,0-.1.1v2.62a.09.09,0,0,0,.1.1h2.5a.15.15,0,0,1,.17.17v1.68a.15.15,0,0,1-.17.17h-2.5a.09.09,0,0,0-.1.1v4.44a.15.15,0,0,1-.17.17H29A.15.15,0,0,1,28.86,26.94Z"/><path class="cls-2" d="M38.45,27.26a2.78,2.78,0,0,1-3-2,4.1,4.1,0,0,1-.2-1.12c0-.47,0-1.42,0-2.86s0-2.39,0-2.86a4.1,4.1,0,0,1,.2-1.12,2.78,2.78,0,0,1,3-2,2.79,2.79,0,0,1,3,2,4.16,4.16,0,0,1,.19,1.12c0,.47,0,1.42,0,2.86s0,2.39,0,2.86a4.16,4.16,0,0,1-.19,1.12A2.79,2.79,0,0,1,38.45,27.26Zm0-2a.76.76,0,0,0,.81-.56,22.77,22.77,0,0,0,.12-3.37A22.77,22.77,0,0,0,39.26,18a.76.76,0,0,0-.81-.56.77.77,0,0,0-.82.56,22.77,22.77,0,0,0-.12,3.37,22.77,22.77,0,0,0,.12,3.37A.77.77,0,0,0,38.45,25.26Z"/><path class="cls-2" d="M43,26.94V15.72a.15.15,0,0,1,.17-.17h2.12a.22.22,0,0,1,.24.17L47.49,23h.09V15.72a.15.15,0,0,1,.17-.17h1.61a.15.15,0,0,1,.17.17V26.94a.15.15,0,0,1-.17.17h-2a.24.24,0,0,1-.24-.17l-2-7.26H45v7.26a.15.15,0,0,1-.17.17H43.21A.15.15,0,0,1,43,26.94Z"/><path class="cls-2" d="M57.08,23.68a4,4,0,0,1-.76,2.7,3,3,0,0,1-2.44.88q-3.08,0-3.12-3.09c0-.11,0-.18.13-.19l1.82-.29c.13,0,.19,0,.19.14A2.19,2.19,0,0,0,53.16,25a.85.85,0,0,0,.74.34.82.82,0,0,0,.71-.3A2,2,0,0,0,54.82,24a2.29,2.29,0,0,0-.21-1.12,1.76,1.76,0,0,0-.86-.6l-.7-.27a3.46,3.46,0,0,1-1.71-1.22,3.91,3.91,0,0,1-.48-2.13q0-3.21,3.06-3.21A2.7,2.7,0,0,1,57,18.27c0,.11,0,.18-.15.19l-1.74.27c-.12,0-.19,0-.19-.14,0-.84-.32-1.26-.91-1.26s-.89.39-.89,1.16a1.65,1.65,0,0,0,.21.94,2,2,0,0,0,.88.56l.7.27a3.39,3.39,0,0,1,1.7,1.21A4.07,4.07,0,0,1,57.08,23.68Z"/><path class="cls-2" d="M58.29,26.94V15.72a.15.15,0,0,1,.17-.17h5a.15.15,0,0,1,.17.17v1.67a.15.15,0,0,1-.17.17H60.62c-.07,0-.11,0-.11.1v2.51a.1.1,0,0,0,.11.11h2.49c.12,0,.17,0,.17.17v1.66c0,.12-.05.17-.17.17H60.62a.1.1,0,0,0-.11.1V25c0,.07,0,.1.11.1h2.89a.15.15,0,0,1,.17.17v1.67a.15.15,0,0,1-.17.17h-5A.15.15,0,0,1,58.29,26.94Z"/><path class="cls-2" d="M65,25.34a19.77,19.77,0,0,1-.22-4,19.77,19.77,0,0,1,.22-4,2.7,2.7,0,0,1,2.87-1.92,3.06,3.06,0,0,1,2.19.74,3,3,0,0,1,.85,2.18c0,.13,0,.19-.15.2L69,18.83c-.13,0-.19,0-.19-.15,0-.85-.33-1.28-.89-1.28a.72.72,0,0,0-.76.53,26.84,26.84,0,0,0-.1,3.4,26.84,26.84,0,0,0,.1,3.4.72.72,0,0,0,.76.53c.56,0,.85-.43.89-1.28,0-.12.06-.17.19-.15l1.78.3c.1,0,.15.08.15.21a2.75,2.75,0,0,1-3,2.92A2.7,2.7,0,0,1,65,25.34Z"/><path class="cls-2" d="M71.17,26.94l2.52-11.22a.2.2,0,0,1,.19-.17h2a.19.19,0,0,1,.19.17l2.48,11.22c0,.11,0,.17-.14.17H76.53a.19.19,0,0,1-.19-.17L76,24.85h-2.2l-.39,2.09c0,.11-.08.17-.18.17H71.31C71.2,27.11,71.15,27.05,71.17,26.94Zm2.93-3.86h1.54l-.73-4h0Z"/></g></g></svg>